 <svg version="1.1" xmlns="http://www.w3.org/2000/svg" xmlns:xlink="http://www.w3.org/1999/xlink" x="0px" y="0px" width="70px" height="70px" viewBox="0 -5 70 70" enable-background="new 0 -5 70 70" xml:space="preserve">
                            <g>
                            <path d="M35.2,37.8c0.6,0,1.1-0.5,1.1-1l0.4-15.4c0-0.6-0.4-1-1-1h-1.4c-0.6,0-1,0.5-1,1l0.4,15.4c0,0.6,0.5,1,1.1,1H35.2z"></path>
                            <path d="M35,40.1c-1.2,0-2.1,0.9-2.1,2.2c0,1.2,0.9,2.2,2.1,2.2c1.3,0,2.1-0.9,2.1-2.2C37.1,41,36.3,40.1,35,40.1z"></path>
                            <path d="M57.8,44.3L38.4,11.9c-0.7-1.2-2-1.9-3.4-1.9c-1.4,0-2.7,0.7-3.4,1.9L12.2,44.3c-0.7,1.2-0.7,2.6,0,3.8
        c0.7,1.2,2,1.9,3.4,1.9h38.8c1.4,0,2.7-0.7,3.4-1.9C58.5,46.9,58.5,45.5,57.8,44.3z M55.9,47c-0.3,0.5-0.8,0.7-1.5,0.7H15.6
        c-0.7,0-1.2-0.3-1.5-0.7c-0.3-0.5-0.3-1.1,0-1.6L33.5,13c0.3-0.5,0.9-0.8,1.5-0.8c0.6,0,1.2,0.3,1.5,0.8l19.4,32.4
        C56.2,45.9,56.2,46.5,55.9,47z"></path>
                                        </g>
                                    </svg>