 <svg xmlns="http://www.w3.org/2000/svg" xmlns:xlink="http://www.w3.org/1999/xlink" version="1.1" x="0px" y="0px" width="70px" height="70px" viewBox="0 -4 70 70" enable-background="new 0 -4 70 70" xml:space="preserve">
                            <g>
                            <path d="M19.9,32.4h28.8c0.5,0,0.9-0.5,0.9-1.1c0-0.6-0.4-1.1-0.9-1.1H19.9c-0.5,0-0.9,0.5-0.9,1.1C19,31.9,19.4,32.4,19.9,32.4z"></path>
                            <path d="M19.9,37.7h28.6c0.5,0,0.9-0.5,0.9-1.1c0-0.6-0.4-1.1-0.9-1.1H19.9c-0.5,0-0.9,0.5-0.9,1.1C19,37.2,19.4,37.7,19.9,37.7z"></path>
                            <path d="M19.9,43h14.7c0.5,0,0.9-0.5,0.9-1.1c0-0.6-0.4-1.1-0.9-1.1H19.9c-0.5,0-0.9,0.5-0.9,1.1C19,42.5,19.4,43,19.9,43z"></path>
                            <path d="M54.2,11H15.8c-1.9,0-3.4,1.7-3.4,3.8v32.4c0,2.1,1.5,3.8,3.4,3.8h38.4c1.9,0,3.4-1.7,3.4-3.8V14.8   C57.6,12.7,56,11,54.2,11z M14.3,23.6c0.1,0,0.1,0,0.2,0h41.2v23.5c0,1-0.7,1.8-1.5,1.8H15.8c-0.8,0-1.5-0.8-1.5-1.8V23.6z    M15.8,13h38.4c0.8,0,1.5,0.8,1.5,1.8v6.7H14.5c-0.1,0-0.1,0-0.2,0v-6.7C14.3,13.8,15,13,15.8,13z"></path>
                            <path d="M19.5,18.7h6c0.5,0,0.9-0.4,0.9-1c0-0.5-0.4-1-0.9-1h-6c-0.5,0-0.9,0.4-0.9,1C18.6,18.2,19,18.7,19.5,18.7z"></path>
                            <path d="M33.8,18.7h0.5c0.5,0,0.9-0.4,0.9-1c0-0.5-0.4-1-0.9-1h-0.5c-0.5,0-0.9,0.4-0.9,1C32.9,18.2,33.3,18.7,33.8,18.7z"></path>
                            <path d="M28.8,18.7h0.5c0.5,0,0.9-0.4,0.9-1c0-0.5-0.4-1-0.9-1h-0.5c-0.5,0-0.9,0.4-0.9,1C28,18.2,28.4,18.7,28.8,18.7z"></path>
                            <path d="M31.3,18.7h0.5c0.5,0,0.9-0.4,0.9-1c0-0.5-0.4-1-0.9-1h-0.5c-0.5,0-0.9,0.4-0.9,1C30.5,18.2,30.8,18.7,31.3,18.7z"></path>
                            <path d="M48.5,19.5c0.1,0.1,0.2,0.2,0.4,0.2c0.1,0,0.3-0.1,0.4-0.2l2.8-2.7c0.2-0.2,0.2-0.4,0.1-0.6c-0.1-0.2-0.3-0.3-0.5-0.3h-5.5   c-0.2,0-0.4,0.1-0.5,0.3c-0.1,0.2-0.1,0.4,0.1,0.6L48.5,19.5z"></path>
                                        </g>
                                    </svg>


